<?xml version="1.0" encoding="utf-8"?>
<!-- Generator: Adobe Illustrator 21.0.2, SVG Export Plug-In . SVG Version: 6.00 Build 0)  -->
<svg version="1.1" id="_x31_" xmlns="http://www.w3.org/2000/svg" xmlns:xlink="http://www.w3.org/1999/xlink" x="0px" y="0px"
	 viewBox="0 0 435 336" style="enable-background:new 0 0 435 336;" xml:space="preserve">
<style type="text/css">
	.st0{fill-rule:evenodd;clip-rule:evenodd;fill:url(#SVGID_1_);}
	.st1{fill-rule:evenodd;clip-rule:evenodd;fill:#3A2E94;}
	.st2{fill-rule:evenodd;clip-rule:evenodd;fill:#F2E550;}
	.st3{fill-rule:evenodd;clip-rule:evenodd;fill:#EBCF3C;}
	.st4{fill-rule:evenodd;clip-rule:evenodd;fill:#BE2E21;}
	.st5{fill-rule:evenodd;clip-rule:evenodd;fill:url(#SVGID_2_);}
	.st6{fill-rule:evenodd;clip-rule:evenodd;fill:url(#SVGID_3_);stroke:#3A2E94;stroke-width:0.2835;stroke-miterlimit:22.9256;}
	.st7{fill-rule:evenodd;clip-rule:evenodd;fill:url(#SVGID_4_);stroke:#3A2E94;stroke-width:0.2835;stroke-miterlimit:22.9256;}
</style>
<g>
	<radialGradient id="SVGID_1_" cx="227.5452" cy="99.4675" r="251.6498" gradientUnits="userSpaceOnUse">
		<stop  offset="0" style="stop-color:#FFFFFF"/>
		<stop  offset="0.42" style="stop-color:#FFFFFF"/>
		<stop  offset="0.54" style="stop-color:#FFFDF0"/>
		<stop  offset="0.69" style="stop-color:#FBF09D"/>
		<stop  offset="1" style="stop-color:#FAED8F"/>
	</radialGradient>
	<path class="st0" d="M220.2,13.3C322.3-3.5,405,37.6,405,105.2c0,67.6-82.8,136-184.9,152.9C118,274.9,35.3,233.8,35.3,166.2
		C35.3,98.6,118,30.1,220.2,13.3z"/>
	<path class="st1" d="M425.8,99.2c1.7,7.8,2.6,15.9,2.6,24.4c0,87-93.2,175.1-208.1,196.7c-107.9,20.3-196.5-25-207-102.6L64.7,203
		c23.1,45.5,84.4,69.4,156.5,55.4c85.8-16.7,156.4-81,165.3-147.8L425.8,99.2z"/>
	<path class="st2" d="M322,15.5c63.1,14,105.7,53.6,105.7,107.5c0,79.9-93.5,160.7-208.9,180.6C103.3,323.5,9.8,274.9,9.8,195
		c0-57.5,48.4-115.4,118.6-150.9c-45.6,29.3-75.8,71.4-75.8,113.1c0,65.7,74.8,105.7,167,89.4c92.2-16.4,167-82.9,167-148.7
		C386.6,59.8,361.3,30.3,322,15.5z"/>
	<path class="st3" d="M326.4,17.1c5.6,1.2,10.9,2.7,16.2,4.3c41.6,18.4,68,52.3,68,95.4c0,78.3-87,157.7-194.3,177.2
		c-81.5,14.8-151.3-9.1-180.1-55.9c63.5,33.3,143.7,49.2,217.9,19.6C304.3,237.6,371,187,387.5,126l-0.3-0.4
		c2.5-8.6,3.8-17.3,3.8-26C391,61.4,365.7,31.9,326.4,17.1z"/>
	<path class="st4" d="M216.3,97.6c68.7-11.8,124.5,9.6,124.5,47.8c0,38.2-55.7,78.7-124.5,90.5c-68.7,11.8-124.5-9.6-124.5-47.8
		C91.8,150,147.5,109.4,216.3,97.6z"/>
	<linearGradient id="SVGID_2_" gradientUnits="userSpaceOnUse" x1="215.3214" y1="279.1622" x2="215.3214" y2="39.4683">
		<stop  offset="0" style="stop-color:#3A2E94"/>
		<stop  offset="8.000000e-02" style="stop-color:#383698"/>
		<stop  offset="0.33" style="stop-color:#3354A2"/>
		<stop  offset="0.68" style="stop-color:#3A8BC3"/>
		<stop  offset="1" style="stop-color:#44A1D1"/>
	</linearGradient>
	<path class="st5" d="M211.1,183.4l4.7,0l1.2,0l15.3-24.6l4.7,24.5c12.5-0.1,24.9-0.2,37.4-0.3v0l29.6-0.2l0,0l3.7,0l1.2,0
		l24.1-119.9l-0.4-0.2l-4.6,0l1.7-8.8L297,54.1l-1.8,8.8l-4.6,0l5.9-8.8l-37.7,0.3l-11.4,19.5l-2-10.6l-3.3,0l-1.6-8.7l-31,0.2v0
		l-7,0.1v0l-6.5,0c41.2-12.9,82.2-13.9,114.3-4.5l16,0c-39.3-15.4-94-14.8-147.9,4.7l-6.7,0l-1.9,3.2c-0.6,0.2-1.1,0.5-1.7,0.7
		c-4.4,1.8-8.7,3.7-12.9,5.6l-1.7-9.4l-38,0.3l7.7,26.9l-0.1,0.1l2.3,7.8l0,0l7.3,25.3l-46.7,69l37.9-0.3l0,0l4.7,0l1.2,0l15.3-24.6
		l4.7,24.5L211.1,183.4L211.1,183.4L211.1,183.4z M102.6,267.7l-2.6,0l0.2-1c-21.3-9.2-37.7-23.3-46.4-41.9
		c-19.8-42.4,5.8-96.2,59-135.2l4,7.4c-42.3,34.9-61.7,80.2-44.7,116.5c6.5,13.9,17.7,25.1,32.2,33.3l10.3-51.3l41.1-0.3
		c2.7,0,5.4,0.3,8,1.2c0.3,0.1,0.6,0.2,1,0.4c3.1,1.3,5.8,3.7,7.4,6.7c0.9,0.2,1.7,0.5,2.6,0.9c2,0.8,3.7,2.2,5,4.2
		c0.1,0.2,0.2,0.4,0.3,0.6c2.8-3.8,6.1-7.1,10-9.9c2.4-1.6,4.7-2.9,7.4-4c2.7-1,5.3-1.8,8.2-2.3c4.4-0.7,8.9-0.8,13.3-0.3
		c3.5,0.4,6.6,1.2,9.8,2.7c2,1.1,3.6,2.2,5.2,3.8c0.7,0.8,1.4,1.7,2,2.6c3.5,1.2,6.2,3.1,8,5.8c1.2,1.8,2.3,3.6,3.1,5.5l3.7-18.6
		l29.6-0.2l-1.5,7.7l4.1,0l6.5-7.7l37.2-0.3l-7.4,7.7l9.7-0.1l-29.4,30.7l18.4,34l-1.2,0l-25.7,0.2l0,0l-14.1,0.1l-2.1-4.7l-0.9,4.7
		l-1.2,0l-20.3,0.1l0,0l-9.4,0.1C191.5,283.4,139.9,282.9,102.6,267.7L102.6,267.7z M179.5,263.1c-2.1-1.6-3.9-3.6-5.5-5.8
		c-0.7,1.4-1.6,2.6-2.7,3.6c-0.8,0.8-1.7,1.5-2.6,2.2C172.3,263.2,175.8,263.2,179.5,263.1L179.5,263.1z M183.5,167.8L169,114.9
		L204.7,62l2,6.8l13.2,45.9L185.5,165L183.5,167.8L183.5,167.8z M273.8,169.4l-14-51.1l34.6-51.2L273.8,169.4L273.8,169.4z
		 M160.5,74.5l-0.9-5c1.8-0.9,3.5-1.7,5.3-2.6L160.5,74.5L160.5,74.5z M341.5,57.4c15.9,9,28.1,21.2,35.2,36.4
		c20.9,44.7-8.7,102-67.8,141.4l-4.3-6c15.4-14.5,27-25.7,39.1-39.6c27-31,37.2-66.4,23.4-95.8c-5.7-12.2-15-22.3-27-30.1
		L341.5,57.4L341.5,57.4z M94.3,181.5l43.5-63.4l-16.3-56.8l28.3-0.2l6,32.4l19-32.5l26.7-0.2L164,116.2l17.8,64.7l-27.8,0.2
		l-7.9-39.5l-24.8,39.8L94.3,181.5L94.3,181.5z M181.3,180.9l43.5-63.4l-16.3-56.8l28.3-0.2l6,32.4l19-32.5l26.7-0.2l-37.4,55.5
		l17.8,64.7l-27.8,0.2l-7.9-39.5l-24.8,39.8L181.3,180.9L181.3,180.9z M276.6,180.2L300.7,60l23.6-0.2L300.2,180L276.6,180.2
		L276.6,180.2z M119.4,200.9l-12.9,64.4L144,265c2.8,0,17.8-0.4,21.1-16.5c2.5-12.4-4.7-15.9-8.7-16.8l0.1-0.3
		c9.7-3.3,12.1-12.5,12.8-15.9c3-15.1-10.8-14.8-13.1-14.8L119.4,200.9L119.4,200.9z M133.9,226l8.4-0.1c2,0,6-0.3,7.1-5.8
		c1-4.8-2.7-5.4-4.8-5.4l-8.4,0.1L133.9,226L133.9,226z M128.8,251.2l8.9-0.1c4.8,0,7.1-3,7.7-6.2c0.9-4.4-1.7-6.4-5.2-6.4l-8.9,0.1
		L128.8,251.2L128.8,251.2z M215.4,244.9c-2.1,5.2-6.7,8-12.3,8.1c-8.1,0.1-10.8-7.2-9-15.4l42.7-0.3c3.4-14.4,3.8-39.7-22.9-39.5
		c-19.2,0.1-33.7,14.4-37.8,34.8c-4.5,22.5,6.7,34.6,24.2,34.5c4.9,0,23.7-0.2,34.6-22.2L215.4,244.9L215.4,244.9z M197.1,225
		l22.8-0.2c1-6.7-1.4-13-8.8-13C204.3,211.9,198.9,218,197.1,225L197.1,225z M243.7,264.3l20.3-0.2l5.7-28.5l12.5,28.4l25.7-0.2
		l-18.4-34l29.2-30.4l-24.8,0.2L271.7,226l5.3-26.3l-20.3,0.1L243.7,264.3z"/>
	<linearGradient id="SVGID_3_" gradientUnits="userSpaceOnUse" x1="209.6976" y1="181.2917" x2="209.6976" y2="59.6063">
		<stop  offset="0" style="stop-color:#AEAEAF"/>
		<stop  offset="0.43" style="stop-color:#F3F3F3"/>
		<stop  offset="1" style="stop-color:#FFFFFF"/>
	</linearGradient>
	<path class="st6" d="M94.7,181.3l27-0.2l24.8-39.8l7.9,39.5l27.8-0.2L164.4,116l37.4-55.5l-26.7,0.2l-19,32.5l-6-32.4l-28.3,0.2
		l16.3,56.8L94.7,181.3L94.7,181.3z M181.6,180.6l43.5-63.4l-16.3-56.8l28.3-0.2l6,32.4l19-32.5l26.7-0.2l-37.4,55.5l17.8,64.7
		l-27.8,0.2l-7.9-39.5l-24.8,39.8L181.6,180.6L181.6,180.6z M277,179.9l23.6-0.2l24.1-120.2l-23.6,0.2L277,179.9z"/>
	<linearGradient id="SVGID_4_" gradientUnits="userSpaceOnUse" x1="212.0027" y1="267.352" x2="212.0027" y2="198.1209">
		<stop  offset="0" style="stop-color:#AEAEAF"/>
		<stop  offset="0.43" style="stop-color:#F3F3F3"/>
		<stop  offset="1" style="stop-color:#FFFFFF"/>
	</linearGradient>
	<path class="st7" d="M118.8,201.2l-12.9,64.4l37.5-0.3c2.8,0,17.8-0.4,21.1-16.5c2.5-12.4-4.7-15.9-8.7-16.8l0.1-0.3
		c9.7-3.3,12.1-12.5,12.8-15.9c3-15.1-10.8-14.8-13.1-14.8L118.8,201.2L118.8,201.2z M133.2,226.3l2.2-11.2l8.4-0.1
		c2.1,0,5.8,0.6,4.8,5.4c-1.1,5.5-5.1,5.8-7.1,5.8L133.2,226.3L133.2,226.3z M128.2,251.5l2.5-12.5l8.9-0.1c3.5,0,6.1,2,5.2,6.4
		c-0.6,3.2-3,6.1-7.7,6.2L128.2,251.5L128.2,251.5z M214.8,245.2l19.5-0.1c-10.9,22.1-29.7,22.2-34.6,22.2
		c-17.4,0.1-28.7-11.9-24.2-34.5c4.1-20.4,18.7-34.6,37.8-34.8c26.7-0.2,26.3,25.1,22.9,39.5l-42.7,0.3c-1.9,8.1,0.8,15.4,9,15.4
		C208,253.3,212.7,250.5,214.8,245.2L214.8,245.2z M196.5,225.3l22.8-0.2c1-6.7-1.4-13-8.8-13C203.7,212.2,198.2,218.3,196.5,225.3
		L196.5,225.3z M243.1,264.6l20.3-0.2l5.7-28.5l12.5,28.4l25.7-0.2l-18.4-34l29.2-30.4l-24.8,0.2l-22.2,26.4l5.3-26.3l-20.3,0.1
		L243.1,264.6z"/>
</g>
</svg>
